<svg id="Layer_1" data-name="Layer 1" xmlns="http://www.w3.org/2000/svg" viewBox="0 0 307.47 188.55"><defs><style>.cls-1{fill:#fff;}</style></defs><path class="cls-1" d="M260.2,185.59a46.44,46.44,0,0,0-2.13-7.6,32.33,32.33,0,0,0-11.5-19c-7.14-5.73-15.47-12-24.9-15.56a15.68,15.68,0,0,0-9.48-3.91,1.48,1.48,0,0,0-.43,0,30.27,30.27,0,0,0-4.09-.3c-1.29-.09-2.6-.15-3.92-.17a2.17,2.17,0,0,0-1.18.3c-1.22.05-2.41.1-3.54.11a146.39,146.39,0,0,0-24.88,2.81A63.87,63.87,0,0,0,156,149c-3.72,2-6.87,3.93-11,5.28a58.45,58.45,0,0,0-9.47,4.34c-6.26,3.41-11.77,9-16.17,14-5,5.74-10.1,11.47-13.11,18.19a54.27,54.27,0,0,0-5,18.49,1.91,1.91,0,0,0-.49,1c-1.6,13.12-1.69,26.68,6.58,37.22a50.69,50.69,0,0,0,13.52,14c6.64,4.46,13.57,8.82,22.26,9.57l.83.07c14.65,4.87,30.57,3.48,45.3-1.87,4-1.44,7.92-3.08,11.84-4.9l.4-.15a118.84,118.84,0,0,0,25.12-13c15.83-10.62,25.07-25.85,31.45-41.73A42.57,42.57,0,0,0,260.2,185.59Zm-2.76,7.65,0,0s0-.08,0-.12S257.44,193.19,257.44,193.24Zm-24,35.63-2.6,2.07-1,.36c1.44-1,2.86-2.06,4.26-3.13C233.88,228.4,233.64,228.62,233.41,228.87ZM125,260.05a3.11,3.11,0,0,0,.38.72l-.8-.56Zm116.1-27.23a1.59,1.59,0,0,0,.32-.16c-.12.17-.25.33-.38.49C241.11,233,241.12,232.93,241.14,232.82Zm7.08-12.08c.47-.6.9-1.21,1.33-1.82-.36.72-.73,1.43-1.1,2.14A2.35,2.35,0,0,0,248.22,220.74Zm8.49-20.13c-.07.39-.16.77-.24,1.16Zm-31.58-49.15a29,29,0,0,1,7.83,1.67c5.5,3.39,11.32,7.69,15.11,12.23a26.34,26.34,0,0,1,2.14,3c.6,1.25,1.28,2.47,2,3.7a30.77,30.77,0,0,1,2.56,11.33c.21,7.18-2.53,13.27-5.68,19.85-2.65,5.53-5.69,11.92-10.26,16.56a96.35,96.35,0,0,1-16.2,12.52,94.91,94.91,0,0,1-9,5c-.79.27-1.58.52-2.36.8a3.56,3.56,0,0,0-1.56,1.05c-7.52,3.37-15.41,6.11-23.27,9a51.76,51.76,0,0,1-22.29,3.24c-6.64-.43-13.67-.84-20.19-1.91a17.49,17.49,0,0,1-2.81-.69,27.48,27.48,0,0,1-4.15-.85,18.58,18.58,0,0,1-3.4-1.33l-.38-.21c-.41-.22-.8-.46-1.2-.72-.14-.09-.28-.18-.41-.28a15.77,15.77,0,0,1-1.49-1.16l-.42-.38-.53-.29c-.43-.18-.85-.36-1.27-.56s-.65-.34-1-.53a1.83,1.83,0,0,1-.24-.13l-.14,0c-.69-.24-1.39-.49-2.1-.76a36.1,36.1,0,0,1-5.77-2.75c-1.34-2.17-2.72-4.31-4.18-6.42a1.65,1.65,0,0,0-.63-.52c.33-1.72,1.73-2.86,3.59-3.62.4-.16.82-.31,1.25-.44h0c.44-.13.9-.25,1.37-.35a13.73,13.73,0,0,1,3.14-.87,2.12,2.12,0,0,1,1.37.27,19.06,19.06,0,0,1,3.07-.53c6.71-.69,13-.6,19.37-2.69,5.64-1.83,10.89-3.3,16.17-5.94,10.61-5.33,16.94-14,21.54-23.43,4.87-10,5.54-21.45,13-30.45,3.27-3.94,8.39-9.24,13.82-11C215.88,151.41,220.75,152.27,225.13,151.46Zm-85.57,70.4.32-.17a34.24,34.24,0,0,0,5.06-3.82c2.67-2.16,5.68-3.91,8.47-5.94,4.07-2.94,8-5.87,10.73-9.8a105.31,105.31,0,0,0,8.61-15.07c4.86-10.1,12.43-18.89,20.68-27.25,3.58-3.64,7.42-5.63,11.89-7.59A47.12,47.12,0,0,0,192.47,165c-4.08,6-5.67,12.56-7.74,19.16a63.83,63.83,0,0,1-11,21C165.94,214.69,152.73,219.75,139.56,221.86Zm78.49-76.28.14,0H218A.14.14,0,0,1,218.05,145.58Zm-108.2,46.61c3.35-7.46,9.31-14.34,15.24-20.53,5.45-5.69,12.62-11.18,20.63-14.06a53.56,53.56,0,0,0,9.72-4.43,82,82,0,0,1,9.84-4.53c7.24-3,15.94-4.65,24-5.22,4.68-.32,9.33-.69,14-.59,1.23,0,2.62-.05,4-.08a1.41,1.41,0,0,0,1.11.57,36.61,36.61,0,0,1,6.37,1.24,6.29,6.29,0,0,1,.07,1.38,58.82,58.82,0,0,0-13.45,4c-5.22,2.13-9,5.58-12.57,9.39-4,4.33-8.28,8.73-11.83,13.34-7.48,9.73-10.1,22.16-19,31.09-4.3,4.32-10.12,7.24-14.94,11.08-.85.68-1.69,1.29-2.52,1.87a10.27,10.27,0,0,1-3.27,2.6c-.53.29-1.08.56-1.64.81l-.38.16c-.46.21-.93.4-1.4.58l-.53.2-.9.32-.49.17-.31.11-1.42.46-2.17.69-.5.16c-1.59.49-3.28,1-5,1.44l-.64.16c-.74.19-1.49.36-2.25.52a42.94,42.94,0,0,1-4.26.7c-2.19,1-3.09.67-5,.25a1.8,1.8,0,0,0-1.26.22l-.43-.72a2.22,2.22,0,0,1-.79-.58c-.1-.32-.18-.65-.27-1v-.5c-.14-.28-.25-.57-.38-.85-1-3.7-1.66-7.52-2.5-11C104.8,205.13,107.22,198.05,109.85,192.19Z" transform="translate(-26.27 -85.72)"/><path class="cls-1" d="M232.81,214c8.18-11.45,14.07-25,12.42-38.4a1.1,1.1,0,0,0-1.48-.76l-.37.13a.85.85,0,0,0-.3,1.51c.9,13.14-5.36,25.19-12.91,36.54C229.23,214.4,231.86,215.31,232.81,214Z" transform="translate(-26.27 -85.72)"/><path class="cls-1" d="M218.46,220.51c4.94-5,9.65-10.14,10.78-16.81.21-1.25-1.93-1.51-2.26-.29-1.66,6.26-5.94,10.82-11,15.44C214.62,220.12,217.13,221.86,218.46,220.51Z" transform="translate(-26.27 -85.72)"/><path class="cls-1" d="M118.67,210.18a130.49,130.49,0,0,1,5.7-18.79c2-4.78,5.23-11,10.11-14.35a1.12,1.12,0,0,0,1-1.34c0-.09-.05-.17-.07-.26-.2-.71-1.26-.73-1.86-.44-5.34,2.67-9.36,9-11.66,13.74-3.24,6.64-5.2,14-6.9,21C114.53,211.71,118.19,212.17,118.67,210.18Z" transform="translate(-26.27 -85.72)"/><path class="cls-1" d="M126.76,197.89c-1.28,4-3,7.48-2.94,11.73,0,1.59,3.13,1.32,2.93-.29-.51-4,.71-7.35,1.62-11.24C128.58,197.2,127,197,126.76,197.89Z" transform="translate(-26.27 -85.72)"/><path class="cls-1" d="M184.52,120.76c-4.18,0-4.18,6.37,0,6.37S188.7,120.76,184.52,120.76Z" transform="translate(-26.27 -85.72)"/><path class="cls-1" d="M186.14,101.65c-4.17,0-4.18,6.37,0,6.37S190.33,101.65,186.14,101.65Z" transform="translate(-26.27 -85.72)"/><path class="cls-1" d="M186.14,85.72c-4.17,0-4.18,6.37,0,6.37S190.33,85.72,186.14,85.72Z" transform="translate(-26.27 -85.72)"/><path class="cls-1" d="M263.24,139.87c-4.18,0-4.18,6.37,0,6.37S267.42,139.87,263.24,139.87Z" transform="translate(-26.27 -85.72)"/><path class="cls-1" d="M274.6,129.52c-4.18,0-4.18,6.37,0,6.37S278.79,129.52,274.6,129.52Z" transform="translate(-26.27 -85.72)"/><path class="cls-1" d="M122,137.48c-4.18,0-4.18,6.37,0,6.37S126.22,137.48,122,137.48Z" transform="translate(-26.27 -85.72)"/><path class="cls-1" d="M112.29,124.74c-4.17,0-4.18,6.37,0,6.37S116.48,124.74,112.29,124.74Z" transform="translate(-26.27 -85.72)"/><path class="cls-1" d="M77.4,187.65c-4.18,0-4.19,6.37,0,6.37S81.58,187.65,77.4,187.65Z" transform="translate(-26.27 -85.72)"/><path class="cls-1" d="M53.86,186.06c-4.18,0-4.18,6.37,0,6.37S58.05,186.06,53.86,186.06Z" transform="translate(-26.27 -85.72)"/><path class="cls-1" d="M30.33,185.26h-.81a3.19,3.19,0,1,0,0,6.37h.81a3.19,3.19,0,1,0,0-6.37Z" transform="translate(-26.27 -85.72)"/><path class="cls-1" d="M285.15,189.25c-4.18,0-4.18,6.37,0,6.37S289.34,189.25,285.15,189.25Z" transform="translate(-26.27 -85.72)"/><path class="cls-1" d="M306.25,186.86c-4.18,0-4.18,6.37,0,6.37S310.44,186.86,306.25,186.86Z" transform="translate(-26.27 -85.72)"/><path class="cls-1" d="M330.6,183.67c-4.18,0-4.19,6.37,0,6.37S334.78,183.67,330.6,183.67Z" transform="translate(-26.27 -85.72)"/><path class="cls-1" d="M70.9,228.27c-4.17,0-4.18,6.37,0,6.37S75.09,228.27,70.9,228.27Z" transform="translate(-26.27 -85.72)"/><path class="cls-1" d="M49.8,240.21H49a3.19,3.19,0,1,0,0,6.37h.81a3.19,3.19,0,1,0,0-6.37Z" transform="translate(-26.27 -85.72)"/><path class="cls-1" d="M279.47,235.43h-.81a3.19,3.19,0,1,0,0,6.37h.81a3.19,3.19,0,1,0,0-6.37Z" transform="translate(-26.27 -85.72)"/><path class="cls-1" d="M299.76,248.17a3.28,3.28,0,0,0-3.25,3.19v.8a3.25,3.25,0,0,0,6.5,0v-.8A3.26,3.26,0,0,0,299.76,248.17Z" transform="translate(-26.27 -85.72)"/></svg>